<?xml version="1.0" encoding="UTF-8"?>
<!DOCTYPE svg PUBLIC "-//W3C//DTD SVG 1.1//EN" "http://www.w3.org/Graphics/SVG/1.1/DTD/svg11.dtd">
<svg
  xmlns="http://www.w3.org/2000/svg"
  version="1.1"
  viewBox="0 0 45 45"
  width="240px"
  height="240px"
  stroke="none"
>
  <rect width="100%" height="100%" fill="#FFFFFF" />
  <path
    d="M4,4h1v1h-1z M5,4h1v1h-1z M6,4h1v1h-1z M7,4h1v1h-1z M8,4h1v1h-1z M9,4h1v1h-1z M10,4h1v1h-1z M12,4h1v1h-1z M13,4h1v1h-1z M23,4h1v1h-1z M27,4h1v1h-1z M30,4h1v1h-1z M34,4h1v1h-1z M35,4h1v1h-1z M36,4h1v1h-1z M37,4h1v1h-1z M38,4h1v1h-1z M39,4h1v1h-1z M40,4h1v1h-1z M4,5h1v1h-1z M10,5h1v1h-1z M12,5h1v1h-1z M13,5h1v1h-1z M14,5h1v1h-1z M17,5h1v1h-1z M18,5h1v1h-1z M20,5h1v1h-1z M21,5h1v1h-1z M31,5h1v1h-1z M34,5h1v1h-1z M40,5h1v1h-1z M4,6h1v1h-1z M6,6h1v1h-1z M7,6h1v1h-1z M8,6h1v1h-1z M10,6h1v1h-1z M12,6h1v1h-1z M13,6h1v1h-1z M15,6h1v1h-1z M16,6h1v1h-1z M18,6h1v1h-1z M19,6h1v1h-1z M20,6h1v1h-1z M23,6h1v1h-1z M24,6h1v1h-1z M25,6h1v1h-1z M26,6h1v1h-1z M27,6h1v1h-1z M28,6h1v1h-1z M30,6h1v1h-1z M34,6h1v1h-1z M36,6h1v1h-1z M37,6h1v1h-1z M38,6h1v1h-1z M40,6h1v1h-1z M4,7h1v1h-1z M6,7h1v1h-1z M7,7h1v1h-1z M8,7h1v1h-1z M10,7h1v1h-1z M14,7h1v1h-1z M17,7h1v1h-1z M18,7h1v1h-1z M19,7h1v1h-1z M21,7h1v1h-1z M22,7h1v1h-1z M26,7h1v1h-1z M28,7h1v1h-1z M29,7h1v1h-1z M31,7h1v1h-1z M34,7h1v1h-1z M36,7h1v1h-1z M37,7h1v1h-1z M38,7h1v1h-1z M40,7h1v1h-1z M4,8h1v1h-1z M6,8h1v1h-1z M7,8h1v1h-1z M8,8h1v1h-1z M10,8h1v1h-1z M13,8h1v1h-1z M16,8h1v1h-1z M19,8h1v1h-1z M20,8h1v1h-1z M24,8h1v1h-1z M25,8h1v1h-1z M26,8h1v1h-1z M27,8h1v1h-1z M30,8h1v1h-1z M31,8h1v1h-1z M32,8h1v1h-1z M34,8h1v1h-1z M36,8h1v1h-1z M37,8h1v1h-1z M38,8h1v1h-1z M40,8h1v1h-1z M4,9h1v1h-1z M10,9h1v1h-1z M12,9h1v1h-1z M15,9h1v1h-1z M16,9h1v1h-1z M18,9h1v1h-1z M19,9h1v1h-1z M20,9h1v1h-1z M22,9h1v1h-1z M24,9h1v1h-1z M25,9h1v1h-1z M26,9h1v1h-1z M28,9h1v1h-1z M30,9h1v1h-1z M31,9h1v1h-1z M34,9h1v1h-1z M40,9h1v1h-1z M4,10h1v1h-1z M5,10h1v1h-1z M6,10h1v1h-1z M7,10h1v1h-1z M8,10h1v1h-1z M9,10h1v1h-1z M10,10h1v1h-1z M12,10h1v1h-1z M14,10h1v1h-1z M16,10h1v1h-1z M18,10h1v1h-1z M20,10h1v1h-1z M22,10h1v1h-1z M24,10h1v1h-1z M26,10h1v1h-1z M28,10h1v1h-1z M30,10h1v1h-1z M32,10h1v1h-1z M34,10h1v1h-1z M35,10h1v1h-1z M36,10h1v1h-1z M37,10h1v1h-1z M38,10h1v1h-1z M39,10h1v1h-1z M40,10h1v1h-1z M12,11h1v1h-1z M13,11h1v1h-1z M15,11h1v1h-1z M19,11h1v1h-1z M22,11h1v1h-1z M25,11h1v1h-1z M26,11h1v1h-1z M27,11h1v1h-1z M32,11h1v1h-1z M6,12h1v1h-1z M7,12h1v1h-1z M8,12h1v1h-1z M10,12h1v1h-1z M12,12h1v1h-1z M13,12h1v1h-1z M15,12h1v1h-1z M16,12h1v1h-1z M17,12h1v1h-1z M19,12h1v1h-1z M20,12h1v1h-1z M24,12h1v1h-1z M26,12h1v1h-1z M27,12h1v1h-1z M28,12h1v1h-1z M30,12h1v1h-1z M31,12h1v1h-1z M32,12h1v1h-1z M33,12h1v1h-1z M34,12h1v1h-1z M35,12h1v1h-1z M38,12h1v1h-1z M39,12h1v1h-1z M40,12h1v1h-1z M7,13h1v1h-1z M8,13h1v1h-1z M12,13h1v1h-1z M13,13h1v1h-1z M15,13h1v1h-1z M18,13h1v1h-1z M22,13h1v1h-1z M26,13h1v1h-1z M27,13h1v1h-1z M33,13h1v1h-1z M5,14h1v1h-1z M7,14h1v1h-1z M8,14h1v1h-1z M10,14h1v1h-1z M11,14h1v1h-1z M13,14h1v1h-1z M14,14h1v1h-1z M15,14h1v1h-1z M17,14h1v1h-1z M18,14h1v1h-1z M20,14h1v1h-1z M21,14h1v1h-1z M24,14h1v1h-1z M27,14h1v1h-1z M28,14h1v1h-1z M29,14h1v1h-1z M31,14h1v1h-1z M34,14h1v1h-1z M36,14h1v1h-1z M37,14h1v1h-1z M39,14h1v1h-1z M40,14h1v1h-1z M4,15h1v1h-1z M6,15h1v1h-1z M7,15h1v1h-1z M11,15h1v1h-1z M14,15h1v1h-1z M15,15h1v1h-1z M16,15h1v1h-1z M18,15h1v1h-1z M19,15h1v1h-1z M21,15h1v1h-1z M22,15h1v1h-1z M23,15h1v1h-1z M26,15h1v1h-1z M30,15h1v1h-1z M31,15h1v1h-1z M32,15h1v1h-1z M34,15h1v1h-1z M35,15h1v1h-1z M39,15h1v1h-1z M40,15h1v1h-1z M4,16h1v1h-1z M5,16h1v1h-1z M6,16h1v1h-1z M10,16h1v1h-1z M12,16h1v1h-1z M16,16h1v1h-1z M19,16h1v1h-1z M20,16h1v1h-1z M22,16h1v1h-1z M23,16h1v1h-1z M24,16h1v1h-1z M25,16h1v1h-1z M30,16h1v1h-1z M31,16h1v1h-1z M34,16h1v1h-1z M37,16h1v1h-1z M38,16h1v1h-1z M40,16h1v1h-1z M4,17h1v1h-1z M5,17h1v1h-1z M6,17h1v1h-1z M8,17h1v1h-1z M9,17h1v1h-1z M12,17h1v1h-1z M15,17h1v1h-1z M16,17h1v1h-1z M18,17h1v1h-1z M21,17h1v1h-1z M23,17h1v1h-1z M25,17h1v1h-1z M26,17h1v1h-1z M27,17h1v1h-1z M31,17h1v1h-1z M32,17h1v1h-1z M33,17h1v1h-1z M35,17h1v1h-1z M37,17h1v1h-1z M39,17h1v1h-1z M5,18h1v1h-1z M6,18h1v1h-1z M8,18h1v1h-1z M10,18h1v1h-1z M12,18h1v1h-1z M13,18h1v1h-1z M16,18h1v1h-1z M17,18h1v1h-1z M18,18h1v1h-1z M19,18h1v1h-1z M22,18h1v1h-1z M23,18h1v1h-1z M25,18h1v1h-1z M29,18h1v1h-1z M31,18h1v1h-1z M33,18h1v1h-1z M34,18h1v1h-1z M37,18h1v1h-1z M40,18h1v1h-1z M9,19h1v1h-1z M11,19h1v1h-1z M12,19h1v1h-1z M17,19h1v1h-1z M22,19h1v1h-1z M23,19h1v1h-1z M24,19h1v1h-1z M26,19h1v1h-1z M27,19h1v1h-1z M28,19h1v1h-1z M32,19h1v1h-1z M33,19h1v1h-1z M34,19h1v1h-1z M35,19h1v1h-1z M4,20h1v1h-1z M6,20h1v1h-1z M7,20h1v1h-1z M8,20h1v1h-1z M10,20h1v1h-1z M11,20h1v1h-1z M12,20h1v1h-1z M15,20h1v1h-1z M19,20h1v1h-1z M21,20h1v1h-1z M22,20h1v1h-1z M23,20h1v1h-1z M24,20h1v1h-1z M27,20h1v1h-1z M28,20h1v1h-1z M29,20h1v1h-1z M31,20h1v1h-1z M32,20h1v1h-1z M34,20h1v1h-1z M36,20h1v1h-1z M38,20h1v1h-1z M39,20h1v1h-1z M40,20h1v1h-1z M12,21h1v1h-1z M14,21h1v1h-1z M19,21h1v1h-1z M20,21h1v1h-1z M21,21h1v1h-1z M23,21h1v1h-1z M26,21h1v1h-1z M27,21h1v1h-1z M30,21h1v1h-1z M33,21h1v1h-1z M35,21h1v1h-1z M37,21h1v1h-1z M38,21h1v1h-1z M39,21h1v1h-1z M4,22h1v1h-1z M6,22h1v1h-1z M7,22h1v1h-1z M9,22h1v1h-1z M10,22h1v1h-1z M11,22h1v1h-1z M13,22h1v1h-1z M18,22h1v1h-1z M22,22h1v1h-1z M24,22h1v1h-1z M26,22h1v1h-1z M27,22h1v1h-1z M29,22h1v1h-1z M31,22h1v1h-1z M32,22h1v1h-1z M33,22h1v1h-1z M34,22h1v1h-1z M35,22h1v1h-1z M36,22h1v1h-1z M37,22h1v1h-1z M40,22h1v1h-1z M4,23h1v1h-1z M6,23h1v1h-1z M9,23h1v1h-1z M14,23h1v1h-1z M15,23h1v1h-1z M17,23h1v1h-1z M18,23h1v1h-1z M19,23h1v1h-1z M21,23h1v1h-1z M22,23h1v1h-1z M24,23h1v1h-1z M25,23h1v1h-1z M27,23h1v1h-1z M28,23h1v1h-1z M30,23h1v1h-1z M31,23h1v1h-1z M33,23h1v1h-1z M34,23h1v1h-1z M37,23h1v1h-1z M4,24h1v1h-1z M5,24h1v1h-1z M6,24h1v1h-1z M7,24h1v1h-1z M10,24h1v1h-1z M14,24h1v1h-1z M15,24h1v1h-1z M16,24h1v1h-1z M18,24h1v1h-1z M19,24h1v1h-1z M20,24h1v1h-1z M21,24h1v1h-1z M24,24h1v1h-1z M25,24h1v1h-1z M29,24h1v1h-1z M31,24h1v1h-1z M34,24h1v1h-1z M35,24h1v1h-1z M36,24h1v1h-1z M38,24h1v1h-1z M4,25h1v1h-1z M5,25h1v1h-1z M7,25h1v1h-1z M8,25h1v1h-1z M9,25h1v1h-1z M11,25h1v1h-1z M12,25h1v1h-1z M14,25h1v1h-1z M17,25h1v1h-1z M18,25h1v1h-1z M19,25h1v1h-1z M21,25h1v1h-1z M24,25h1v1h-1z M25,25h1v1h-1z M27,25h1v1h-1z M28,25h1v1h-1z M30,25h1v1h-1z M32,25h1v1h-1z M33,25h1v1h-1z M40,25h1v1h-1z M5,26h1v1h-1z M6,26h1v1h-1z M8,26h1v1h-1z M10,26h1v1h-1z M14,26h1v1h-1z M15,26h1v1h-1z M23,26h1v1h-1z M25,26h1v1h-1z M26,26h1v1h-1z M27,26h1v1h-1z M31,26h1v1h-1z M34,26h1v1h-1z M37,26h1v1h-1z M39,26h1v1h-1z M40,26h1v1h-1z M4,27h1v1h-1z M5,27h1v1h-1z M7,27h1v1h-1z M8,27h1v1h-1z M12,27h1v1h-1z M13,27h1v1h-1z M14,27h1v1h-1z M15,27h1v1h-1z M16,27h1v1h-1z M18,27h1v1h-1z M20,27h1v1h-1z M30,27h1v1h-1z M34,27h1v1h-1z M37,27h1v1h-1z M5,28h1v1h-1z M10,28h1v1h-1z M12,28h1v1h-1z M15,28h1v1h-1z M20,28h1v1h-1z M31,28h1v1h-1z M33,28h1v1h-1z M34,28h1v1h-1z M38,28h1v1h-1z M39,28h1v1h-1z M40,28h1v1h-1z M4,29h1v1h-1z M7,29h1v1h-1z M8,29h1v1h-1z M11,29h1v1h-1z M15,29h1v1h-1z M16,29h1v1h-1z M20,29h1v1h-1z M21,29h1v1h-1z M22,29h1v1h-1z M23,29h1v1h-1z M24,29h1v1h-1z M25,29h1v1h-1z M28,29h1v1h-1z M31,29h1v1h-1z M32,29h1v1h-1z M35,29h1v1h-1z M37,29h1v1h-1z M39,29h1v1h-1z M4,30h1v1h-1z M6,30h1v1h-1z M8,30h1v1h-1z M9,30h1v1h-1z M10,30h1v1h-1z M13,30h1v1h-1z M15,30h1v1h-1z M18,30h1v1h-1z M21,30h1v1h-1z M31,30h1v1h-1z M32,30h1v1h-1z M34,30h1v1h-1z M36,30h1v1h-1z M40,30h1v1h-1z M4,31h1v1h-1z M8,31h1v1h-1z M12,31h1v1h-1z M13,31h1v1h-1z M17,31h1v1h-1z M18,31h1v1h-1z M21,31h1v1h-1z M22,31h1v1h-1z M24,31h1v1h-1z M26,31h1v1h-1z M28,31h1v1h-1z M30,31h1v1h-1z M35,31h1v1h-1z M40,31h1v1h-1z M4,32h1v1h-1z M9,32h1v1h-1z M10,32h1v1h-1z M11,32h1v1h-1z M13,32h1v1h-1z M14,32h1v1h-1z M18,32h1v1h-1z M19,32h1v1h-1z M21,32h1v1h-1z M22,32h1v1h-1z M24,32h1v1h-1z M26,32h1v1h-1z M28,32h1v1h-1z M29,32h1v1h-1z M31,32h1v1h-1z M32,32h1v1h-1z M33,32h1v1h-1z M34,32h1v1h-1z M35,32h1v1h-1z M36,32h1v1h-1z M37,32h1v1h-1z M38,32h1v1h-1z M40,32h1v1h-1z M12,33h1v1h-1z M13,33h1v1h-1z M14,33h1v1h-1z M15,33h1v1h-1z M16,33h1v1h-1z M19,33h1v1h-1z M21,33h1v1h-1z M23,33h1v1h-1z M24,33h1v1h-1z M26,33h1v1h-1z M27,33h1v1h-1z M29,33h1v1h-1z M30,33h1v1h-1z M31,33h1v1h-1z M32,33h1v1h-1z M36,33h1v1h-1z M37,33h1v1h-1z M38,33h1v1h-1z M40,33h1v1h-1z M4,34h1v1h-1z M5,34h1v1h-1z M6,34h1v1h-1z M7,34h1v1h-1z M8,34h1v1h-1z M9,34h1v1h-1z M10,34h1v1h-1z M14,34h1v1h-1z M16,34h1v1h-1z M19,34h1v1h-1z M21,34h1v1h-1z M23,34h1v1h-1z M31,34h1v1h-1z M32,34h1v1h-1z M34,34h1v1h-1z M36,34h1v1h-1z M37,34h1v1h-1z M39,34h1v1h-1z M40,34h1v1h-1z M4,35h1v1h-1z M10,35h1v1h-1z M14,35h1v1h-1z M15,35h1v1h-1z M17,35h1v1h-1z M18,35h1v1h-1z M21,35h1v1h-1z M23,35h1v1h-1z M25,35h1v1h-1z M26,35h1v1h-1z M32,35h1v1h-1z M36,35h1v1h-1z M37,35h1v1h-1z M40,35h1v1h-1z M4,36h1v1h-1z M6,36h1v1h-1z M7,36h1v1h-1z M8,36h1v1h-1z M10,36h1v1h-1z M12,36h1v1h-1z M13,36h1v1h-1z M14,36h1v1h-1z M15,36h1v1h-1z M16,36h1v1h-1z M22,36h1v1h-1z M28,36h1v1h-1z M29,36h1v1h-1z M31,36h1v1h-1z M32,36h1v1h-1z M33,36h1v1h-1z M34,36h1v1h-1z M35,36h1v1h-1z M36,36h1v1h-1z M38,36h1v1h-1z M39,36h1v1h-1z M40,36h1v1h-1z M4,37h1v1h-1z M6,37h1v1h-1z M7,37h1v1h-1z M8,37h1v1h-1z M10,37h1v1h-1z M12,37h1v1h-1z M13,37h1v1h-1z M14,37h1v1h-1z M16,37h1v1h-1z M19,37h1v1h-1z M20,37h1v1h-1z M23,37h1v1h-1z M25,37h1v1h-1z M26,37h1v1h-1z M30,37h1v1h-1z M33,37h1v1h-1z M34,37h1v1h-1z M35,37h1v1h-1z M36,37h1v1h-1z M37,37h1v1h-1z M38,37h1v1h-1z M4,38h1v1h-1z M6,38h1v1h-1z M7,38h1v1h-1z M8,38h1v1h-1z M10,38h1v1h-1z M12,38h1v1h-1z M15,38h1v1h-1z M16,38h1v1h-1z M18,38h1v1h-1z M19,38h1v1h-1z M21,38h1v1h-1z M23,38h1v1h-1z M24,38h1v1h-1z M25,38h1v1h-1z M26,38h1v1h-1z M27,38h1v1h-1z M28,38h1v1h-1z M29,38h1v1h-1z M31,38h1v1h-1z M40,38h1v1h-1z M4,39h1v1h-1z M10,39h1v1h-1z M18,39h1v1h-1z M19,39h1v1h-1z M21,39h1v1h-1z M24,39h1v1h-1z M27,39h1v1h-1z M30,39h1v1h-1z M32,39h1v1h-1z M36,39h1v1h-1z M37,39h1v1h-1z M40,39h1v1h-1z M4,40h1v1h-1z M5,40h1v1h-1z M6,40h1v1h-1z M7,40h1v1h-1z M8,40h1v1h-1z M9,40h1v1h-1z M10,40h1v1h-1z M15,40h1v1h-1z M16,40h1v1h-1z M18,40h1v1h-1z M21,40h1v1h-1z M23,40h1v1h-1z M24,40h1v1h-1z M26,40h1v1h-1z M27,40h1v1h-1z M28,40h1v1h-1z M29,40h1v1h-1z M30,40h1v1h-1z M31,40h1v1h-1z M33,40h1v1h-1z M34,40h1v1h-1z M35,40h1v1h-1z M38,40h1v1h-1z M39,40h1v1h-1z M40,40h1v1h-1z"
    fill="#000000"
  />
</svg>
